STARTFONT 2.1
FONT grmono
SIZE 8 96 96
FONTBOUNDINGBOX 8 8 0 0
CHARS 149
STARTPROPERTIES 2
CHARSET_REGISTRY "Adobe"
CHARSET_ENCODING "Standard"
ENDPROPERTIES
STARTCHAR char21
ENCODING 33
DWIDTH 8 0
BBX 8 8 0 0
BITMAP
10
10
10
10
10
00
10
10
ENDCHAR
STARTCHAR char22
ENCODING 34
DWIDTH 8 0
BBX 8 8 0 0
BITMAP
28
28
00
00
00
00
00
00
ENDCHAR
STARTCHAR char23
ENCODING 35
DWIDTH 8 0
BBX 8 8 0 0
BITMAP
24
24
FF
24
24
FF
24
24
ENDCHAR
STARTCHAR char24
ENCODING 36
DWIDTH 8 0
BBX 8 8 0 0
BITMAP
18
2C
28
18
08
0C
2C
18
ENDCHAR
STARTCHAR char25
ENCODING 37
DWIDTH 8 0
BBX 8 8 0 0
BITMAP
41
A2
44
08
10
22
45
82
ENDCHAR
STARTCHAR char26
ENCODING 38
DWIDTH 8 0
BBX 8 8 0 0
BITMAP
30
48
48
31
4A
84
4A
31
ENDCHAR
STARTCHAR char27
ENCODING 39
DWIDTH 8 0
BBX 8 8 0 0
BITMAP
08
08
10
00
00
00
00
00
ENDCHAR
STARTCHAR char28
ENCODING 40
DWIDTH 8 0
BBX 8 8 0 0
BITMAP
08
10
10
10
10
10
10
08
ENDCHAR
STARTCHAR char29
ENCODING 41
DWIDTH 8 0
BBX 8 8 0 0
BITMAP
10
08
08
08
08
08
08
10
ENDCHAR
STARTCHAR char2A
ENCODING 42
DWIDTH 8 0
BBX 8 8 0 0
BITMAP
24
18
18
24
00
00
00
00
ENDCHAR
STARTCHAR char2B
ENCODING 43
DWIDTH 8 0
BBX 8 8 0 0
BITMAP
00
00
10
38
10
00
00
00
ENDCHAR
STARTCHAR char2C
ENCODING 44
DWIDTH 8 0
BBX 8 8 0 0
BITMAP
00
00
00
00
00
00
08
10
ENDCHAR
STARTCHAR char2D
ENCODING 45
DWIDTH 8 0
BBX 8 8 0 0
BITMAP
00
00
00
38
00
00
00
00
ENDCHAR
STARTCHAR char2E
ENCODING 46
DWIDTH 8 0
BBX 8 8 0 0
BITMAP
00
00
00
00
00
00
00
08
ENDCHAR
STARTCHAR char2F
ENCODING 47
DWIDTH 8 0
BBX 8 8 0 0
BITMAP
04
04
08
08
10
10
20
20
ENDCHAR
STARTCHAR char30
ENCODING 48
DWIDTH 8 0
BBX 8 8 0 0
BITMAP
3C
46
4A
4A
52
52
62
3C
ENDCHAR
STARTCHAR char31
ENCODING 49
DWIDTH 8 0
BBX 8 8 0 0
BITMAP
08
18
08
08
08
08
08
08
ENDCHAR
STARTCHAR char32
ENCODING 50
DWIDTH 8 0
BBX 8 8 0 0
BITMAP
18
24
04
08
10
20
20
3C
ENDCHAR
STARTCHAR char33
ENCODING 51
DWIDTH 8 0
BBX 8 8 0 0
BITMAP
18
24
04
04
18
04
24
18
ENDCHAR
STARTCHAR char34
ENCODING 52
DWIDTH 8 0
BBX 8 8 0 0
BITMAP
28
28
28
28
3C
08
08
08
ENDCHAR
STARTCHAR char35
ENCODING 53
DWIDTH 8 0
BBX 8 8 0 0
BITMAP
3C
20
20
20
18
04
24
18
ENDCHAR
STARTCHAR char36
ENCODING 54
DWIDTH 8 0
BBX 8 8 0 0
BITMAP
1C
20
20
20
38
24
24
18
ENDCHAR
STARTCHAR char37
ENCODING 55
DWIDTH 8 0
BBX 8 8 0 0
BITMAP
3C
04
08
08
10
10
20
20
ENDCHAR
STARTCHAR char38
ENCODING 56
DWIDTH 8 0
BBX 8 8 0 0
BITMAP
18
24
24
18
24
24
24
18
ENDCHAR
STARTCHAR char39
ENCODING 57
DWIDTH 8 0
BBX 8 8 0 0
BITMAP
18
24
24
1C
04
04
24
18
ENDCHAR
STARTCHAR char3A
ENCODING 58
DWIDTH 8 0
BBX 8 8 0 0
BITMAP
00
00
00
00
08
00
00
08
ENDCHAR
STARTCHAR char3B
ENCODING 59
DWIDTH 8 0
BBX 8 8 0 0
BITMAP
00
00
00
00
08
00
08
10
ENDCHAR
STARTCHAR char3C
ENCODING 60
DWIDTH 8 0
BBX 8 8 0 0
BITMAP
00
03
3C
C0
C0
3C
03
00
ENDCHAR
STARTCHAR char3D
ENCODING 61
DWIDTH 8 0
BBX 8 8 0 0
BITMAP
00
00
38
00
38
00
00
00
ENDCHAR
STARTCHAR char3E
ENCODING 62
DWIDTH 8 0
BBX 8 8 0 0
BITMAP
00
C0
3C
03
03
3C
C0
00
ENDCHAR
STARTCHAR char3F
ENCODING 63
DWIDTH 8 0
BBX 8 8 0 0
BITMAP
18
04
04
08
10
00
10
10
ENDCHAR
STARTCHAR char40
ENCODING 64
DWIDTH 8 0
BBX 8 8 0 0
BITMAP
7E
81
81
99
A9
9E
80
7F
ENDCHAR
STARTCHAR char41
ENCODING 65
DWIDTH 8 0
BBX 8 8 0 0
BITMAP
18
18
24
24
3C
24
42
42
ENDCHAR
STARTCHAR char42
ENCODING 66
DWIDTH 8 0
BBX 8 8 0 0
BITMAP
7C
42
42
7C
42
42
42
7C
ENDCHAR
STARTCHAR char43
ENCODING 67
DWIDTH 8 0
BBX 8 8 0 0
BITMAP
1C
20
20
20
20
20
20
1C
ENDCHAR
STARTCHAR char44
ENCODING 68
DWIDTH 8 0
BBX 8 8 0 0
BITMAP
7C
42
42
42
42
42
42
7C
ENDCHAR
STARTCHAR char45
ENCODING 69
DWIDTH 8 0
BBX 8 8 0 0
BITMAP
7E
40
40
40
7E
40
40
7E
ENDCHAR
STARTCHAR char46
ENCODING 70
DWIDTH 8 0
BBX 8 8 0 0
BITMAP
7E
40
40
40
7E
40
40
40
ENDCHAR
STARTCHAR char47
ENCODING 71
DWIDTH 8 0
BBX 8 8 0 0
BITMAP
3E
40
40
40
4E
42
42
3E
ENDCHAR
STARTCHAR char48
ENCODING 72
DWIDTH 8 0
BBX 8 8 0 0
BITMAP
42
42
42
42
7E
42
42
42
ENDCHAR
STARTCHAR char49
ENCODING 73
DWIDTH 8 0
BBX 8 8 0 0
BITMAP
1C
08
08
08
08
08
08
1C
ENDCHAR
STARTCHAR char4A
ENCODING 74
DWIDTH 8 0
BBX 8 8 0 0
BITMAP
3C
04
04
04
04
04
24
18
ENDCHAR
STARTCHAR char4B
ENCODING 75
DWIDTH 8 0
BBX 8 8 0 0
BITMAP
24
28
28
30
30
28
28
24
ENDCHAR
STARTCHAR char4C
ENCODING 76
DWIDTH 8 0
BBX 8 8 0 0
BITMAP
20
20
20
20
20
20
20
3C
ENDCHAR
STARTCHAR char4D
ENCODING 77
DWIDTH 8 0
BBX 8 8 0 0
BITMAP
81
C3
A5
99
81
81
81
81
ENDCHAR
STARTCHAR char4E
ENCODING 78
DWIDTH 8 0
BBX 8 8 0 0
BITMAP
24
24
34
2C
24
24
24
24
ENDCHAR
STARTCHAR char4F
ENCODING 79
DWIDTH 8 0
BBX 8 8 0 0
BITMAP
7E
81
81
81
81
81
81
7E
ENDCHAR
STARTCHAR char50
ENCODING 80
DWIDTH 8 0
BBX 8 8 0 0
BITMAP
38
24
24
38
20
20
20
20
ENDCHAR
STARTCHAR char51
ENCODING 81
DWIDTH 8 0
BBX 8 8 0 0
BITMAP
3E
41
41
41
41
41
3E
01
ENDCHAR
STARTCHAR char52
ENCODING 82
DWIDTH 8 0
BBX 8 8 0 0
BITMAP
38
24
24
38
30
28
28
24
ENDCHAR
STARTCHAR char53
ENCODING 83
DWIDTH 8 0
BBX 8 8 0 0
BITMAP
18
24
20
10
08
04
24
18
ENDCHAR
STARTCHAR char54
ENCODING 84
DWIDTH 8 0
BBX 8 8 0 0
BITMAP
FF
08
08
08
08
08
08
08
ENDCHAR
STARTCHAR char55
ENCODING 85
DWIDTH 8 0
BBX 8 8 0 0
BITMAP
81
81
81
81
81
81
81
7E
ENDCHAR
STARTCHAR char56
ENCODING 86
DWIDTH 8 0
BBX 8 8 0 0
BITMAP
42
42
24
24
24
24
18
18
ENDCHAR
STARTCHAR char57
ENCODING 87
DWIDTH 8 0
BBX 8 8 0 0
BITMAP
81
81
81
81
81
81
99
66
ENDCHAR
STARTCHAR char58
ENCODING 88
DWIDTH 8 0
BBX 8 8 0 0
BITMAP
81
42
24
18
18
24
42
81
ENDCHAR
STARTCHAR char59
ENCODING 89
DWIDTH 8 0
BBX 8 8 0 0
BITMAP
42
24
24
18
18
18
18
18
ENDCHAR
STARTCHAR char5A
ENCODING 90
DWIDTH 8 0
BBX 8 8 0 0
BITMAP
FF
02
04
08
10
20
40
FF
ENDCHAR
STARTCHAR char5B
ENCODING 91
DWIDTH 8 0
BBX 8 8 0 0
BITMAP
18
10
10
10
10
10
10
18
ENDCHAR
STARTCHAR char5C
ENCODING 92
DWIDTH 8 0
BBX 8 8 0 0
BITMAP
80
40
20
10
08
04
02
01
ENDCHAR
STARTCHAR char5D
ENCODING 93
DWIDTH 8 0
BBX 8 8 0 0
BITMAP
18
08
08
08
08
08
08
18
ENDCHAR
STARTCHAR char5E
ENCODING 94
DWIDTH 8 0
BBX 8 8 0 0
BITMAP
10
28
00
00
00
00
00
00
ENDCHAR
STARTCHAR char5F
ENCODING 95
DWIDTH 8 0
BBX 8 8 0 0
BITMAP
00
00
00
00
00
00
00
FF
ENDCHAR
STARTCHAR char60
ENCODING 96
DWIDTH 8 0
BBX 8 8 0 0
BITMAP
08
10
10
00
00
00
00
00
ENDCHAR
STARTCHAR char61
ENCODING 97
DWIDTH 8 0
BBX 8 8 0 0
BITMAP
00
00
00
00
18
24
24
1C
ENDCHAR
STARTCHAR char62
ENCODING 98
DWIDTH 8 0
BBX 8 8 0 0
BITMAP
20
20
20
20
28
34
24
38
ENDCHAR
STARTCHAR char63
ENCODING 99
DWIDTH 8 0
BBX 8 8 0 0
BITMAP
00
00
00
00
1C
20
20
1C
ENDCHAR
STARTCHAR char64
ENCODING 100
DWIDTH 8 0
BBX 8 8 0 0
BITMAP
04
04
04
04
14
2C
24
18
ENDCHAR
STARTCHAR char65
ENCODING 101
DWIDTH 8 0
BBX 8 8 0 0
BITMAP
00
00
00
18
24
3C
20
1C
ENDCHAR
STARTCHAR char66
ENCODING 102
DWIDTH 8 0
BBX 8 8 0 0
BITMAP
08
10
10
18
10
10
10
10
ENDCHAR
STARTCHAR char67
ENCODING 103
DWIDTH 8 0
BBX 8 8 0 0
BITMAP
00
1C
24
24
1C
04
24
18
ENDCHAR
STARTCHAR char68
ENCODING 104
DWIDTH 8 0
BBX 8 8 0 0
BITMAP
20
20
20
20
28
34
24
24
ENDCHAR
STARTCHAR char69
ENCODING 105
DWIDTH 8 0
BBX 8 8 0 0
BITMAP
00
00
08
00
18
08
08
08
ENDCHAR
STARTCHAR char6A
ENCODING 106
DWIDTH 8 0
BBX 8 8 0 0
BITMAP
00
00
08
00
08
08
08
10
ENDCHAR
STARTCHAR char6B
ENCODING 107
DWIDTH 8 0
BBX 8 8 0 0
BITMAP
20
20
20
20
28
30
28
24
ENDCHAR
STARTCHAR char6C
ENCODING 108
DWIDTH 8 0
BBX 8 8 0 0
BITMAP
10
10
10
10
10
10
10
18
ENDCHAR
STARTCHAR char6D
ENCODING 109
DWIDTH 8 0
BBX 8 8 0 0
BITMAP
00
00
00
00
00
24
5A
42
ENDCHAR
STARTCHAR char6E
ENCODING 110
DWIDTH 8 0
BBX 8 8 0 0
BITMAP
00
00
00
00
28
34
24
24
ENDCHAR
STARTCHAR char6F
ENCODING 111
DWIDTH 8 0
BBX 8 8 0 0
BITMAP
00
00
00
00
18
24
24
18
ENDCHAR
STARTCHAR char70
ENCODING 112
DWIDTH 8 0
BBX 8 8 0 0
BITMAP
00
00
18
24
24
38
20
20
ENDCHAR
STARTCHAR char71
ENCODING 113
DWIDTH 8 0
BBX 8 8 0 0
BITMAP
00
00
00
18
24
24
18
04
ENDCHAR
STARTCHAR char72
ENCODING 114
DWIDTH 8 0
BBX 8 8 0 0
BITMAP
00
00
00
00
2C
30
20
20
ENDCHAR
STARTCHAR char73
ENCODING 115
DWIDTH 8 0
BBX 8 8 0 0
BITMAP
00
00
18
24
10
08
24
18
ENDCHAR
STARTCHAR char74
ENCODING 116
DWIDTH 8 0
BBX 8 8 0 0
BITMAP
10
10
18
10
10
10
10
08
ENDCHAR
STARTCHAR char75
ENCODING 117
DWIDTH 8 0
BBX 8 8 0 0
BITMAP
00
00
00
00
24
24
2C
14
ENDCHAR
STARTCHAR char76
ENCODING 118
DWIDTH 8 0
BBX 8 8 0 0
BITMAP
00
00
00
00
24
24
18
18
ENDCHAR
STARTCHAR char77
ENCODING 119
DWIDTH 8 0
BBX 8 8 0 0
BITMAP
00
00
00
00
00
42
5A
24
ENDCHAR
STARTCHAR char78
ENCODING 120
DWIDTH 8 0
BBX 8 8 0 0
BITMAP
00
00
00
00
24
18
18
24
ENDCHAR
STARTCHAR char79
ENCODING 121
DWIDTH 8 0
BBX 8 8 0 0
BITMAP
00
24
24
24
1C
04
24
18
ENDCHAR
STARTCHAR char7A
ENCODING 122
DWIDTH 8 0
BBX 8 8 0 0
BITMAP
00
00
00
00
3C
08
10
3C
ENDCHAR
STARTCHAR char7B
ENCODING 123
DWIDTH 8 0
BBX 8 8 0 0
BITMAP
08
10
10
10
20
10
10
08
ENDCHAR
STARTCHAR char7C
ENCODING 124
DWIDTH 8 0
BBX 8 8 0 0
BITMAP
08
08
08
08
08
08
08
08
ENDCHAR
STARTCHAR char7D
ENCODING 125
DWIDTH 8 0
BBX 8 8 0 0
BITMAP
10
08
08
08
04
08
08
10
ENDCHAR
STARTCHAR char7E
ENCODING 126
DWIDTH 8 0
BBX 8 8 0 0
BITMAP
00
00
00
14
28
00
00
00
ENDCHAR
STARTCHAR charA1
ENCODING 161
DWIDTH 8 0
BBX 8 8 0 0
BITMAP
08
08
00
08
08
08
08
08
ENDCHAR
STARTCHAR charA2
ENCODING 162
DWIDTH 8 0
BBX 8 8 0 0
BITMAP
00
00
00
00
1C
28
30
1C
ENDCHAR
STARTCHAR charA3
ENCODING 163
DWIDTH 8 0
BBX 8 8 0 0
BITMAP
3C
42
40
7C
40
40
40
FF
ENDCHAR
STARTCHAR charA4
ENCODING 164
DWIDTH 8 0
BBX 8 8 0 0
BITMAP
01
02
04
08
10
20
40
80
ENDCHAR
STARTCHAR charA5
ENCODING 165
DWIDTH 8 0
BBX 8 8 0 0
BITMAP
42
24
24
18
7E
18
7E
18
ENDCHAR
STARTCHAR charA6
ENCODING 166
DWIDTH 8 0
BBX 8 8 0 0
BITMAP
08
10
10
18
10
10
20
20
ENDCHAR
STARTCHAR charA7
ENCODING 167
DWIDTH 8 0
BBX 8 8 0 0
BITMAP
1C
20
38
24
24
1C
04
38
ENDCHAR
STARTCHAR charA8
ENCODING 168
DWIDTH 8 0
BBX 8 8 0 0
BITMAP
00
42
3C
24
24
3C
42
00
ENDCHAR
STARTCHAR charA9
ENCODING 169
DWIDTH 8 0
BBX 8 8 0 0
BITMAP
08
08
00
00
00
00
00
00
ENDCHAR
STARTCHAR charAA
ENCODING 170
DWIDTH 8 0
BBX 8 8 0 0
BITMAP
14
28
28
00
00
00
00
00
ENDCHAR
STARTCHAR charAB
ENCODING 171
DWIDTH 8 0
BBX 8 8 0 0
BITMAP
00
00
14
28
28
14
00
00
ENDCHAR
STARTCHAR charAC
ENCODING 172
DWIDTH 8 0
BBX 8 8 0 0
BITMAP
00
00
08
10
10
08
00
00
ENDCHAR
STARTCHAR charAD
ENCODING 173
DWIDTH 8 0
BBX 8 8 0 0
BITMAP
00
00
10
08
08
10
00
00
ENDCHAR
STARTCHAR charAE
ENCODING 174
DWIDTH 8 0
BBX 8 8 0 0
BITMAP
10
20
28
20
38
28
28
28
ENDCHAR
STARTCHAR charAF
ENCODING 175
DWIDTH 8 0
BBX 8 8 0 0
BITMAP
18
28
38
28
28
28
28
2C
ENDCHAR
STARTCHAR charB1
ENCODING 177
DWIDTH 8 0
BBX 8 8 0 0
BITMAP
00
00
00
00
FF
00
00
00
ENDCHAR
STARTCHAR charB2
ENCODING 178
DWIDTH 8 0
BBX 8 8 0 0
BITMAP
00
00
10
38
10
10
00
00
ENDCHAR
STARTCHAR charB3
ENCODING 179
DWIDTH 8 0
BBX 8 8 0 0
BITMAP
00
00
10
38
10
38
10
00
ENDCHAR
STARTCHAR charB4
ENCODING 180
DWIDTH 8 0
BBX 8 8 0 0
BITMAP
00
00
00
18
18
00
00
00
ENDCHAR
STARTCHAR charB6
ENCODING 182
DWIDTH 8 0
BBX 8 8 0 0
BITMAP
3C
74
74
34
14
14
14
14
ENDCHAR
STARTCHAR charB7
ENCODING 183
DWIDTH 8 0
BBX 8 8 0 0
BITMAP
00
00
18
3C
3C
18
00
00
ENDCHAR
STARTCHAR charB8
ENCODING 184
DWIDTH 8 0
BBX 8 8 0 0
BITMAP
00
00
00
00
00
08
08
10
ENDCHAR
STARTCHAR charB9
ENCODING 185
DWIDTH 8 0
BBX 8 8 0 0
BITMAP
00
00
00
00
00
14
14
28
ENDCHAR
STARTCHAR charBA
ENCODING 186
DWIDTH 8 0
BBX 8 8 0 0
BITMAP
14
14
28
00
00
00
00
00
ENDCHAR
STARTCHAR charBB
ENCODING 187
DWIDTH 8 0
BBX 8 8 0 0
BITMAP
00
00
28
14
14
28
00
00
ENDCHAR
STARTCHAR charBC
ENCODING 188
DWIDTH 8 0
BBX 8 8 0 0
BITMAP
00
00
00
00
00
00
DB
DB
ENDCHAR
STARTCHAR charBD
ENCODING 189
DWIDTH 8 0
BBX 8 8 0 0
BITMAP
41
A2
44
08
10
2A
55
8A
ENDCHAR
STARTCHAR charBF
ENCODING 191
DWIDTH 8 0
BBX 8 8 0 0
BITMAP
08
08
00
08
10
20
20
18
ENDCHAR
STARTCHAR charC1
ENCODING 193
DWIDTH 8 0
BBX 8 8 0 0
BITMAP
10
08
00
00
00
00
00
00
ENDCHAR
STARTCHAR charC2
ENCODING 194
DWIDTH 8 0
BBX 8 8 0 0
BITMAP
08
10
00
00
00
00
00
00
ENDCHAR
STARTCHAR charC3
ENCODING 195
DWIDTH 8 0
BBX 8 8 0 0
BITMAP
18
24
00
00
00
00
00
00
ENDCHAR
STARTCHAR charC4
ENCODING 196
DWIDTH 8 0
BBX 8 8 0 0
BITMAP
14
28
00
00
00
00
00
00
ENDCHAR
STARTCHAR charC5
ENCODING 197
DWIDTH 8 0
BBX 8 8 0 0
BITMAP
00
3C
00
00
00
00
00
00
ENDCHAR
STARTCHAR charC6
ENCODING 198
DWIDTH 8 0
BBX 8 8 0 0
BITMAP
24
18
00
00
00
00
00
00
ENDCHAR
STARTCHAR charC7
ENCODING 199
DWIDTH 8 0
BBX 8 8 0 0
BITMAP
10
00
00
00
00
00
00
00
ENDCHAR
STARTCHAR charC8
ENCODING 200
DWIDTH 8 0
BBX 8 8 0 0
BITMAP
24
00
00
00
00
00
00
00
ENDCHAR
STARTCHAR charCA
ENCODING 202
DWIDTH 8 0
BBX 8 8 0 0
BITMAP
18
24
24
18
00
00
00
00
ENDCHAR
STARTCHAR charCB
ENCODING 203
DWIDTH 8 0
BBX 8 8 0 0
BITMAP
00
00
00
00
20
10
08
30
ENDCHAR
STARTCHAR charCD
ENCODING 205
DWIDTH 8 0
BBX 8 8 0 0
BITMAP
22
44
00
00
00
00
00
00
ENDCHAR
STARTCHAR charCE
ENCODING 206
DWIDTH 8 0
BBX 8 8 0 0
BITMAP
00
00
00
00
04
08
10
0C
ENDCHAR
STARTCHAR charCF
ENCODING 207
DWIDTH 8 0
BBX 8 8 0 0
BITMAP
24
18
00
00
00
00
00
00
ENDCHAR
STARTCHAR charD0
ENCODING 208
DWIDTH 8 0
BBX 8 8 0 0
BITMAP
00
00
00
00
FF
00
00
00
ENDCHAR
STARTCHAR charE1
ENCODING 225
DWIDTH 8 0
BBX 8 8 0 0
BITMAP
3F
30
48
48
7F
48
84
87
ENDCHAR
STARTCHAR charE3
ENCODING 227
DWIDTH 8 0
BBX 8 8 0 0
BITMAP
18
24
24
1C
00
00
00
FF
ENDCHAR
STARTCHAR charE8
ENCODING 232
DWIDTH 8 0
BBX 8 8 0 0
BITMAP
20
20
28
30
60
A0
20
3C
ENDCHAR
STARTCHAR charE9
ENCODING 233
DWIDTH 8 0
BBX 8 8 0 0
BITMAP
7F
83
85
89
91
A1
C1
FE
ENDCHAR
STARTCHAR charEA
ENCODING 234
DWIDTH 8 0
BBX 8 8 0 0
BITMAP
77
88
88
88
8F
88
88
77
ENDCHAR
STARTCHAR charEB
ENCODING 235
DWIDTH 8 0
BBX 8 8 0 0
BITMAP
18
24
24
18
00
00
00
FF
ENDCHAR
STARTCHAR charF1
ENCODING 241
DWIDTH 8 0
BBX 8 8 0 0
BITMAP
00
00
00
7E
89
8F
88
77
ENDCHAR
STARTCHAR charF5
ENCODING 245
DWIDTH 8 0
BBX 8 8 0 0
BITMAP
00
00
00
00
18
08
08
08
ENDCHAR
STARTCHAR charF8
ENCODING 248
DWIDTH 8 0
BBX 8 8 0 0
BITMAP
10
10
14
18
30
50
10
18
ENDCHAR
STARTCHAR charF9
ENCODING 249
DWIDTH 8 0
BBX 8 8 0 0
BITMAP
00
00
00
00
1C
2C
34
38
ENDCHAR
STARTCHAR charFA
ENCODING 250
DWIDTH 8 0
BBX 8 8 0 0
BITMAP
00
00
00
76
89
8F
88
77
ENDCHAR
STARTCHAR charFB
ENCODING 251
DWIDTH 8 0
BBX 8 8 0 0
BITMAP
18
24
24
28
24
22
22
2C
ENDCHAR
STARTCHAR space
ENCODING 32
DWIDTH 8 0
BBX 8 8 0 0
BITMAP
00
00
00
00
00
00
00
00
ENDCHAR
ENDFONT
